HIERARCHY
ROOT root
{
	OFFSET	0	13.1	24.9
	CHANNELS 6  Xposition Yposition Zposition Xrotation Yrotation Zrotation
	JOINT spine_1
	{
		OFFSET	0	9.99999	0
		CHANNELS 3  Xrotation Yrotation Zrotation
		JOINT spine_2
		{
			OFFSET	0	112	-10
			CHANNELS 3  Xrotation Yrotation Zrotation
			JOINT spine_3
			{
				OFFSET	0	206.5	19.3
				CHANNELS 3  Xrotation Yrotation Zrotation
				JOINT spine_4
				{
					OFFSET	0	110.4	14.6
					CHANNELS 3  Xrotation Yrotation Zrotation
					JOINT neck_1
					{
						OFFSET	0	71.8	-50.3
						CHANNELS 3  Xrotation Yrotation Zrotation
						JOINT neck_2
						{
							OFFSET	0	86.2	-25.8
							CHANNELS 3  Xrotation Yrotation Zrotation
							JOINT head_ee
							{
								OFFSET	0	179.8	-8.7
								CHANNELS 3  Xrotation Yrotation Zrotation
								End Site
								{
									OFFSET	1	0	0
								}
							}
						}
					}
					JOINT left_clavicle
					{
						OFFSET	-43.2	22.4	-70.8
						CHANNELS 3  Xrotation Yrotation Zrotation
						JOINT left_shoulder
						{
							OFFSET	-93.9	-5.79999	48.7
							CHANNELS 3  Xrotation Yrotation Zrotation
							JOINT left_elbow
							{
								OFFSET	-291.4	-30.8	15.2
								CHANNELS 3  Xrotation Yrotation Zrotation
								JOINT left_lowarm_twist
								{
									OFFSET	-110.7	-3.89999	13.6
									CHANNELS 3  Xrotation Yrotation Zrotation
									JOINT left_hand
									{
										OFFSET	-110.7	-3.89999	13.6
										CHANNELS 3  Xrotation Yrotation Zrotation
										JOINT left_ee
										{
											OFFSET	-80.8	-5.10001	12.1
											CHANNELS 3  Xrotation Yrotation Zrotation
											End Site
											{
												OFFSET	1	0	0
											}
										}
									}
								}
							}
						}
					}
					JOINT right_clavicle
					{
						OFFSET	43.2	22.4	-70.8
						CHANNELS 3  Xrotation Yrotation Zrotation
						JOINT right_shoulder
						{
							OFFSET	93.9	-5.79999	48.7
							CHANNELS 3  Xrotation Yrotation Zrotation
							JOINT right_elbow
							{
								OFFSET	291.4	-30.8	15.2
								CHANNELS 3  Xrotation Yrotation Zrotation
								JOINT right_lowarm_twist
								{
									OFFSET	110.7	-3.89999	13.6
									CHANNELS 3  Xrotation Yrotation Zrotation
									JOINT right_hand
									{
										OFFSET	110.7	-3.89999	13.6
										CHANNELS 3  Xrotation Yrotation Zrotation
										JOINT right_ee
										{
											OFFSET	80.8	-5.10001	12.1
											CHANNELS 3  Xrotation Yrotation Zrotation
											End Site
											{
												OFFSET	1	0	0
											}
										}
									}
								}
							}
						}
					}
				}
			}
		}
	}
	JOINT left_hip
	{
		OFFSET	-82.8	-127.5	0.300001
		CHANNELS 3  Xrotation Yrotation Zrotation
		JOINT left_knee
		{
			OFFSET	-28.2	-396.7	2.2
			CHANNELS 3  Xrotation Yrotation Zrotation
			JOINT left_ankle
			{
				OFFSET	-11.7	-411.3	35.4
				CHANNELS 3  Xrotation Yrotation Zrotation
				JOINT left_toes
				{
					OFFSET	0	-60	-88.6
					CHANNELS 3  Xrotation Yrotation Zrotation
					JOINT left_foot_ee
					{
						OFFSET	-22.5	-16.5	-42.2
						CHANNELS 3  Xrotation Yrotation Zrotation
						End Site
						{
							OFFSET	1	0	0
						}
					}
				}
			}
		}
	}
	JOINT right_hip
	{
		OFFSET	82.8	-127.5	0.300001
		CHANNELS 3  Xrotation Yrotation Zrotation
		JOINT right_knee
		{
			OFFSET	28.2	-396.7	2.2
			CHANNELS 3  Xrotation Yrotation Zrotation
			JOINT right_ankle
			{
				OFFSET	11.7	-411.3	35.4
				CHANNELS 3  Xrotation Yrotation Zrotation
				JOINT right_toes
				{
					OFFSET	0	-60	-88.6
					CHANNELS 3  Xrotation Yrotation Zrotation
					JOINT right_foot_ee
					{
						OFFSET	22.5	-16.5	-42.2
						CHANNELS 3  Xrotation Yrotation Zrotation
						End Site
						{
							OFFSET	1	0	0
						}
					}
				}
			}
		}
	}
}
MOTION
Frames: 6
Frame Time: 0.02
2844.61 739.591 -390.18 154.866 -54.022 166.759 -5.17856 -0.47022 -2.28921 -5.17571 -0.323639 -2.31447 -5.15679 0.378956 -2.30606 -5.16421 0.0101042 -2.33695 4.35934 12.4772 -0.900257 4.97277 22.323 -0.436709 -0.0 0.0 -0.0 5.17105 21.4167 9.93272 -17.5183 -5.39954 72.4309 0.804872 -21.7375 0.154541 -20.18 -1.12973 2.30654 2.6836 22.5706 25.5391 -0.0 0.0 -0.0 10.4318 15.2557 -20.6444 -4.68209 19.0405 -44.4767 1.89846 43.2375 -0.752432 -76.3581 7.35829 -5.31394 -9.27953 -30.5726 41.5359 0.0 0.0 0.0 1.9351 -14.0857 -15.5376 -1.0402 0.0414312 0.154254 13.0488 29.2519 -1.97224 -4.85457 0.0 0.0 -0.0 0.0 -0.0 -15.434 7.23752 -4.0167 -31.0801 -0.00118301 -4.71165 23.9651 5.26701 3.28153 -31.869 0.0 0.0 0.0 0.0 0.0 
2870.6 740.059 -395.42 154.641 -52.47 166.328 -5.10867 -0.29711 -2.60169 -5.10491 -0.131013 -2.61531 -5.0922 0.649695 -2.53676 -5.1011 0.241051 -2.60747 4.71477 12.5038 0.365083 5.25013 21.215 0.974299 -0.0 0.0 -0.0 6.64814 22.3679 12.034 -16.7163 -5.93731 70.9244 0.719808 -19.6248 0.124495 -20.8007 -1.17701 2.37046 2.49752 19.8495 23.6271 -0.0 0.0 -0.0 9.53623 14.6838 -18.6795 -5.36959 17.6533 -46.104 1.86164 42.678 -0.727337 -75.9106 7.30116 -5.31609 -9.19119 -30.5321 40.9125 0.0 0.0 0.0 2.47772 -14.6652 -13.7191 -6.09841 0.202621 0.913553 14.7369 28.2711 -2.20002 -0.149157 0.0 0.0 -0.0 0.0 -0.0 -17.8588 8.8056 -1.66477 -29.0642 -0.078771 -4.41202 21.1646 5.91178 2.94849 -30.9137 0.0 0.0 0.0 0.0 0.0 
2896.0 742.378 -399.604 155.473 -52.0202 167.102 -4.8219 -0.207225 -2.87957 -4.81729 -0.0236488 -2.88691 -4.80862 0.819227 -2.76843 -4.81912 0.371914 -2.86297 4.91823 12.6309 0.266661 5.47902 21.483 0.837124 -0.0 0.0 -0.0 7.88367 23.8818 13.6667 -15.7168 -6.52071 69.4314 0.703962 -19.2248 0.119225 -20.8232 -1.17873 2.37276 2.30133 18.6308 21.9971 -0.0 0.0 -0.0 9.07581 13.6108 -17.7123 -5.80874 15.2794 -46.9728 1.80965 41.8705 -0.692363 -76.0732 7.32193 -5.31536 -9.12319 -30.4924 40.4494 0.0 0.0 0.0 2.33197 -15.1061 -12.8098 -8.04658 0.246718 1.20925 17.3722 28.2103 -2.56769 3.61911 -0.0 -0.0 -0.0 0.0 -0.0 -18.1299 11.5663 -0.630328 -27.6946 -0.12544 -4.20702 16.6436 5.01732 2.3614 -30.6384 0.0 0.0 0.0 0.0 0.0 
2922.65 745.232 -400.189 155.962 -51.6881 167.562 -4.51177 -0.367104 -3.03296 -4.50667 -0.173456 -3.05016 -4.48897 0.706843 -2.97226 -4.50122 0.228788 -3.04651 6.26586 12.2124 -0.396717 6.87881 21.102 -0.118866 -0.0 0.0 -0.0 7.92436 24.0829 13.6998 -14.1866 -7.46175 69.2909 0.696718 -19.0413 0.11685 -20.0747 -1.12178 2.29564 2.26422 16.8864 21.2439 -0.0 0.0 -0.0 8.38591 14.2884 -16.1752 -8.26518 15.5274 -47.5543 1.66488 39.5104 -0.597961 -77.1772 7.46276 -5.30884 -9.41071 -30.5958 42.5302 0.0 0.0 0.0 2.17929 -15.502 -11.5244 -10.6119 0.2894 1.60055 17.3837 29.0771 -2.58443 5.89488 -0.0 -0.0 -0.0 0.0 -0.0 -18.1259 14.2323 -0.616036 -26.4535 -0.163487 -4.02034 12.951 1.41977 1.84449 -31.1785 0.0 0.0 0.0 0.0 0.0 
2948.8 750.308 -402.663 157.118 -51.6516 168.779 -4.27084 -0.430477 -3.14345 -4.26537 -0.229681 -3.16444 -4.24374 0.672381 -3.10077 -4.25712 0.174492 -3.16796 6.47517 11.8079 0.59031 6.97765 19.5043 1.01857 -0.0 0.0 -0.0 9.73075 25.0169 16.1507 -15.0418 -8.03592 66.0733 0.709044 -19.3533 0.120903 -20.6674 -1.1668 2.35677 1.9714 15.7133 18.9498 -0.0 0.0 -0.0 8.03421 14.2077 -15.4144 -8.65878 14.5869 -49.2453 1.4092 34.9159 -0.443202 -76.903 7.4278 -5.31071 -9.13297 -30.4871 40.5311 0.0 0.0 0.0 2.2692 -15.7882 -10.7015 -12.0416 0.305571 1.81931 18.4274 28.6089 -2.71999 7.07414 -0.0 -0.0 -0.0 0.0 -0.0 -17.8731 15.1735 -0.254614 -25.7676 -0.182774 -3.91684 10.9273 1.60578 1.56935 -32.4557 0.0 0.0 0.0 0.0 0.0 
2969.5 755.844 -402.709 157.753 -50.5898 169.694 -4.14628 -0.38949 -3.15372 -4.14077 -0.188125 -3.17209 -4.12167 0.707864 -3.09789 -4.135 0.209984 -3.17072 7.11957 11.7935 1.13828 7.59575 18.8742 1.60386 -0.0 0.0 -0.0 10.5495 25.1297 17.3192 -15.8136 -8.24688 64.4453 0.766438 -20.7903 0.140602 -21.0394 -1.19538 2.3949 1.58461 14.351 15.9735 -0.0 0.0 -0.0 8.50176 15.9705 -16.34 -9.43898 13.7929 -50.2624 1.0744 28.0224 -0.26811 -76.5083 7.37745 -5.31312 -8.94467 -30.2613 39.4218 0.0 0.0 0.0 1.89936 -15.8884 -10.3192 -13.6096 0.317024 2.05961 16.5484 28.5263 -2.45862 7.42278 -0.0 -0.0 -0.0 0.0 -0.0 -17.6256 15.7656 0.413089 -24.3144 -0.21953 -3.69687 8.99611 0.690968 1.29781 -32.9817 0.0 0.0 0.0 0.0 0.0 
